#define 915d2eba2b9c431ea4fd779a7f60293duaAGlyXamVgaNTx3_width 10
#define 915d2eba2b9c431ea4fd779a7f60293duaAGlyXamVgaNTx3_height 10
static char 915d2eba2b9c431ea4fd779a7f60293duaAGlyXamVgaNTx3_bits[] = {
  0xF8, 0x03, 0xF8, 0x03, 0x1B, 0x03, 0x1B, 0x03, 0x1B, 0x03, 0xFB, 0x03, 
  0xFB, 0x03, 0x03, 0x00, 0xFF, 0x00, 0xFF, 0x00, };
